<mxfile host="app.diagrams.net" modified="2022-03-02T04:10:56.813Z" agent="5.0 (Windows NT 10.0; WOW64) AppleWebKit/537.36 (KHTML, like Gecko) Chrome/86.0.4240.198 Safari/537.36" etag="jB2kM_zsR5t8sNdQ2cAo" version="16.6.4" type="github">
  <diagram id="PYlMHFy3A0H7N5cJ7msh" name="Page-1">
    <mxGraphModel dx="868" dy="462" grid="1" gridSize="10" guides="1" tooltips="1" connect="1" arrows="1" fold="1" page="1" pageScale="1" pageWidth="827" pageHeight="1169" math="0" shadow="0">
      <root>
        <mxCell id="0" />
        <mxCell id="1" parent="0" />
        <mxCell id="i-8EgYSI2Mq5ClRvYBfd-3" value="" style="edgeStyle=orthogonalEdgeStyle;rounded=0;orthogonalLoop=1;jettySize=auto;html=1;" edge="1" parent="1" source="i-8EgYSI2Mq5ClRvYBfd-1" target="i-8EgYSI2Mq5ClRvYBfd-2">
          <mxGeometry relative="1" as="geometry" />
        </mxCell>
        <mxCell id="i-8EgYSI2Mq5ClRvYBfd-1" value="基于时空智能的煤矿瓦斯安全管理" style="rounded=0;whiteSpace=wrap;html=1;fillColor=#dae8fc;strokeColor=#6c8ebf;" vertex="1" parent="1">
          <mxGeometry x="790" y="130" width="200" height="50" as="geometry" />
        </mxCell>
        <mxCell id="i-8EgYSI2Mq5ClRvYBfd-20" style="edgeStyle=orthogonalEdgeStyle;rounded=0;orthogonalLoop=1;jettySize=auto;html=1;exitX=0.5;exitY=1;exitDx=0;exitDy=0;entryX=0.5;entryY=0;entryDx=0;entryDy=0;" edge="1" parent="1" source="i-8EgYSI2Mq5ClRvYBfd-2" target="i-8EgYSI2Mq5ClRvYBfd-5">
          <mxGeometry relative="1" as="geometry" />
        </mxCell>
        <mxCell id="i-8EgYSI2Mq5ClRvYBfd-2" value="时空智能煤矿瓦斯安全管理-&lt;b&gt;理论&lt;/b&gt;" style="whiteSpace=wrap;html=1;rounded=0;" vertex="1" parent="1">
          <mxGeometry x="780" y="210" width="220" height="40" as="geometry" />
        </mxCell>
        <mxCell id="i-8EgYSI2Mq5ClRvYBfd-9" style="edgeStyle=orthogonalEdgeStyle;rounded=0;orthogonalLoop=1;jettySize=auto;html=1;exitX=0.25;exitY=1;exitDx=0;exitDy=0;entryX=0.5;entryY=0;entryDx=0;entryDy=0;" edge="1" parent="1" source="i-8EgYSI2Mq5ClRvYBfd-5" target="i-8EgYSI2Mq5ClRvYBfd-11">
          <mxGeometry relative="1" as="geometry">
            <mxPoint x="900" y="370" as="targetPoint" />
          </mxGeometry>
        </mxCell>
        <mxCell id="i-8EgYSI2Mq5ClRvYBfd-18" style="edgeStyle=orthogonalEdgeStyle;rounded=0;orthogonalLoop=1;jettySize=auto;html=1;exitX=0.75;exitY=1;exitDx=0;exitDy=0;entryX=0.5;entryY=0;entryDx=0;entryDy=0;" edge="1" parent="1" source="i-8EgYSI2Mq5ClRvYBfd-5" target="i-8EgYSI2Mq5ClRvYBfd-7">
          <mxGeometry relative="1" as="geometry" />
        </mxCell>
        <mxCell id="i-8EgYSI2Mq5ClRvYBfd-19" style="edgeStyle=orthogonalEdgeStyle;rounded=0;orthogonalLoop=1;jettySize=auto;html=1;exitX=0.5;exitY=1;exitDx=0;exitDy=0;entryX=0.5;entryY=0;entryDx=0;entryDy=0;" edge="1" parent="1" source="i-8EgYSI2Mq5ClRvYBfd-5" target="i-8EgYSI2Mq5ClRvYBfd-10">
          <mxGeometry relative="1" as="geometry" />
        </mxCell>
        <mxCell id="i-8EgYSI2Mq5ClRvYBfd-5" value="时态GIS煤矿瓦斯管理-&lt;b&gt;时空数据模型&lt;/b&gt;" style="whiteSpace=wrap;html=1;rounded=0;" vertex="1" parent="1">
          <mxGeometry x="790" y="280" width="200" height="40" as="geometry" />
        </mxCell>
        <mxCell id="i-8EgYSI2Mq5ClRvYBfd-15" style="edgeStyle=orthogonalEdgeStyle;rounded=0;orthogonalLoop=1;jettySize=auto;html=1;exitX=0.5;exitY=1;exitDx=0;exitDy=0;entryX=0.5;entryY=0;entryDx=0;entryDy=0;" edge="1" parent="1" source="i-8EgYSI2Mq5ClRvYBfd-7" target="i-8EgYSI2Mq5ClRvYBfd-12">
          <mxGeometry relative="1" as="geometry" />
        </mxCell>
        <mxCell id="i-8EgYSI2Mq5ClRvYBfd-7" value="基于时空模型的煤矿瓦斯灾害&lt;b&gt;风险评估&lt;/b&gt;" style="whiteSpace=wrap;html=1;rounded=0;" vertex="1" parent="1">
          <mxGeometry x="980" y="360" width="160" height="60" as="geometry" />
        </mxCell>
        <mxCell id="i-8EgYSI2Mq5ClRvYBfd-14" style="edgeStyle=orthogonalEdgeStyle;rounded=0;orthogonalLoop=1;jettySize=auto;html=1;exitX=0.5;exitY=1;exitDx=0;exitDy=0;" edge="1" parent="1" source="i-8EgYSI2Mq5ClRvYBfd-10">
          <mxGeometry relative="1" as="geometry">
            <mxPoint x="890" y="470" as="targetPoint" />
          </mxGeometry>
        </mxCell>
        <mxCell id="i-8EgYSI2Mq5ClRvYBfd-10" value="基于时空模型的煤矿瓦斯灾害&lt;b&gt;风险预测&lt;/b&gt;" style="rounded=0;whiteSpace=wrap;html=1;" vertex="1" parent="1">
          <mxGeometry x="810" y="360" width="160" height="60" as="geometry" />
        </mxCell>
        <mxCell id="i-8EgYSI2Mq5ClRvYBfd-13" style="edgeStyle=orthogonalEdgeStyle;rounded=0;orthogonalLoop=1;jettySize=auto;html=1;exitX=0.5;exitY=1;exitDx=0;exitDy=0;entryX=0.5;entryY=0;entryDx=0;entryDy=0;" edge="1" parent="1" source="i-8EgYSI2Mq5ClRvYBfd-11" target="i-8EgYSI2Mq5ClRvYBfd-12">
          <mxGeometry relative="1" as="geometry" />
        </mxCell>
        <mxCell id="i-8EgYSI2Mq5ClRvYBfd-11" value="基于时空模型的瓦斯灾害应急&lt;b&gt;决策支持&lt;/b&gt;" style="rounded=0;whiteSpace=wrap;html=1;" vertex="1" parent="1">
          <mxGeometry x="640" y="360" width="160" height="60" as="geometry" />
        </mxCell>
        <mxCell id="i-8EgYSI2Mq5ClRvYBfd-12" value="基于时空智能的煤矿瓦斯&lt;b&gt;管理平台&lt;/b&gt;" style="rounded=0;whiteSpace=wrap;html=1;" vertex="1" parent="1">
          <mxGeometry x="820" y="460" width="140" height="60" as="geometry" />
        </mxCell>
        <mxCell id="i-8EgYSI2Mq5ClRvYBfd-23" value="" style="edgeStyle=orthogonalEdgeStyle;rounded=0;orthogonalLoop=1;jettySize=auto;html=1;" edge="1" parent="1" source="i-8EgYSI2Mq5ClRvYBfd-21" target="i-8EgYSI2Mq5ClRvYBfd-22">
          <mxGeometry relative="1" as="geometry" />
        </mxCell>
        <mxCell id="i-8EgYSI2Mq5ClRvYBfd-21" value="基于时空智能的煤矿瓦斯安全管理研究与应用" style="rounded=0;whiteSpace=wrap;html=1;" vertex="1" parent="1">
          <mxGeometry x="70.5" y="140" width="246" height="40" as="geometry" />
        </mxCell>
        <mxCell id="i-8EgYSI2Mq5ClRvYBfd-25" value="" style="edgeStyle=orthogonalEdgeStyle;rounded=0;orthogonalLoop=1;jettySize=auto;html=1;" edge="1" parent="1" source="i-8EgYSI2Mq5ClRvYBfd-22" target="i-8EgYSI2Mq5ClRvYBfd-24">
          <mxGeometry relative="1" as="geometry" />
        </mxCell>
        <mxCell id="i-8EgYSI2Mq5ClRvYBfd-22" value="第1章 绪论" style="whiteSpace=wrap;html=1;rounded=0;" vertex="1" parent="1">
          <mxGeometry x="110" y="210" width="167" height="30" as="geometry" />
        </mxCell>
        <mxCell id="i-8EgYSI2Mq5ClRvYBfd-27" value="" style="edgeStyle=orthogonalEdgeStyle;rounded=0;orthogonalLoop=1;jettySize=auto;html=1;" edge="1" parent="1" source="i-8EgYSI2Mq5ClRvYBfd-24" target="i-8EgYSI2Mq5ClRvYBfd-26">
          <mxGeometry relative="1" as="geometry" />
        </mxCell>
        <mxCell id="i-8EgYSI2Mq5ClRvYBfd-39" style="edgeStyle=orthogonalEdgeStyle;rounded=0;orthogonalLoop=1;jettySize=auto;html=1;exitX=1;exitY=0.5;exitDx=0;exitDy=0;entryX=0;entryY=0.25;entryDx=0;entryDy=0;" edge="1" parent="1" source="i-8EgYSI2Mq5ClRvYBfd-24" target="i-8EgYSI2Mq5ClRvYBfd-38">
          <mxGeometry relative="1" as="geometry" />
        </mxCell>
        <mxCell id="i-8EgYSI2Mq5ClRvYBfd-24" value="第2章&lt;span&gt;	&lt;/span&gt;煤矿瓦斯安全管理基础理论" style="whiteSpace=wrap;html=1;rounded=0;" vertex="1" parent="1">
          <mxGeometry x="95" y="260" width="197" height="30" as="geometry" />
        </mxCell>
        <mxCell id="i-8EgYSI2Mq5ClRvYBfd-29" value="" style="edgeStyle=orthogonalEdgeStyle;rounded=0;orthogonalLoop=1;jettySize=auto;html=1;" edge="1" parent="1" source="i-8EgYSI2Mq5ClRvYBfd-26" target="i-8EgYSI2Mq5ClRvYBfd-28">
          <mxGeometry relative="1" as="geometry" />
        </mxCell>
        <mxCell id="i-8EgYSI2Mq5ClRvYBfd-26" value="第3章&lt;span&gt;	&lt;/span&gt;基于时态GIS的煤矿瓦斯安全管理时空表达&amp;nbsp;" style="whiteSpace=wrap;html=1;rounded=0;" vertex="1" parent="1">
          <mxGeometry x="60" y="310" width="267" height="30" as="geometry" />
        </mxCell>
        <mxCell id="i-8EgYSI2Mq5ClRvYBfd-31" value="" style="edgeStyle=orthogonalEdgeStyle;rounded=0;orthogonalLoop=1;jettySize=auto;html=1;" edge="1" parent="1" source="i-8EgYSI2Mq5ClRvYBfd-28" target="i-8EgYSI2Mq5ClRvYBfd-30">
          <mxGeometry relative="1" as="geometry" />
        </mxCell>
        <mxCell id="i-8EgYSI2Mq5ClRvYBfd-40" style="edgeStyle=orthogonalEdgeStyle;rounded=0;orthogonalLoop=1;jettySize=auto;html=1;exitX=1;exitY=0.5;exitDx=0;exitDy=0;entryX=0;entryY=0.5;entryDx=0;entryDy=0;" edge="1" parent="1" source="i-8EgYSI2Mq5ClRvYBfd-28" target="i-8EgYSI2Mq5ClRvYBfd-38">
          <mxGeometry relative="1" as="geometry">
            <Array as="points">
              <mxPoint x="366" y="365" />
              <mxPoint x="366" y="300" />
              <mxPoint x="440" y="300" />
            </Array>
          </mxGeometry>
        </mxCell>
        <mxCell id="i-8EgYSI2Mq5ClRvYBfd-28" value="第4章&lt;span&gt;	&lt;/span&gt;煤矿瓦斯安全风险综合评估" style="whiteSpace=wrap;html=1;rounded=0;" vertex="1" parent="1">
          <mxGeometry x="95" y="350" width="197" height="30" as="geometry" />
        </mxCell>
        <mxCell id="i-8EgYSI2Mq5ClRvYBfd-33" value="" style="edgeStyle=orthogonalEdgeStyle;rounded=0;orthogonalLoop=1;jettySize=auto;html=1;" edge="1" parent="1" source="i-8EgYSI2Mq5ClRvYBfd-30" target="i-8EgYSI2Mq5ClRvYBfd-32">
          <mxGeometry relative="1" as="geometry" />
        </mxCell>
        <mxCell id="i-8EgYSI2Mq5ClRvYBfd-41" style="edgeStyle=orthogonalEdgeStyle;rounded=0;orthogonalLoop=1;jettySize=auto;html=1;exitX=1;exitY=0.5;exitDx=0;exitDy=0;" edge="1" parent="1" source="i-8EgYSI2Mq5ClRvYBfd-30" target="i-8EgYSI2Mq5ClRvYBfd-38">
          <mxGeometry relative="1" as="geometry" />
        </mxCell>
        <mxCell id="i-8EgYSI2Mq5ClRvYBfd-30" value="第5章&lt;span&gt;	&lt;/span&gt;基于Transformer的煤矿瓦斯风险预测" style="whiteSpace=wrap;html=1;rounded=0;" vertex="1" parent="1">
          <mxGeometry x="75" y="390" width="237" height="30" as="geometry" />
        </mxCell>
        <mxCell id="i-8EgYSI2Mq5ClRvYBfd-35" value="" style="edgeStyle=orthogonalEdgeStyle;rounded=0;orthogonalLoop=1;jettySize=auto;html=1;" edge="1" parent="1" source="i-8EgYSI2Mq5ClRvYBfd-32" target="i-8EgYSI2Mq5ClRvYBfd-34">
          <mxGeometry relative="1" as="geometry" />
        </mxCell>
        <mxCell id="i-8EgYSI2Mq5ClRvYBfd-42" style="edgeStyle=orthogonalEdgeStyle;rounded=0;orthogonalLoop=1;jettySize=auto;html=1;exitX=1;exitY=0.5;exitDx=0;exitDy=0;entryX=0.75;entryY=1;entryDx=0;entryDy=0;" edge="1" parent="1" source="i-8EgYSI2Mq5ClRvYBfd-32" target="i-8EgYSI2Mq5ClRvYBfd-38">
          <mxGeometry relative="1" as="geometry" />
        </mxCell>
        <mxCell id="i-8EgYSI2Mq5ClRvYBfd-32" value="第6章&lt;span&gt;	&lt;/span&gt;基于时空智能的煤矿瓦斯异常应急决策支持" style="whiteSpace=wrap;html=1;rounded=0;" vertex="1" parent="1">
          <mxGeometry x="60" y="440" width="267" height="35" as="geometry" />
        </mxCell>
        <mxCell id="i-8EgYSI2Mq5ClRvYBfd-37" value="" style="edgeStyle=orthogonalEdgeStyle;rounded=0;orthogonalLoop=1;jettySize=auto;html=1;" edge="1" parent="1" source="i-8EgYSI2Mq5ClRvYBfd-34" target="i-8EgYSI2Mq5ClRvYBfd-36">
          <mxGeometry relative="1" as="geometry" />
        </mxCell>
        <mxCell id="i-8EgYSI2Mq5ClRvYBfd-34" value="第7章&lt;span&gt;	&lt;/span&gt;基于时空智能的煤矿瓦斯安全管理平台实现与应用&amp;nbsp;" style="whiteSpace=wrap;html=1;rounded=0;" vertex="1" parent="1">
          <mxGeometry x="40" y="490" width="307" height="30" as="geometry" />
        </mxCell>
        <mxCell id="i-8EgYSI2Mq5ClRvYBfd-36" value="第8章&lt;span&gt;	&lt;/span&gt;结论与展望" style="whiteSpace=wrap;html=1;rounded=0;" vertex="1" parent="1">
          <mxGeometry x="133.5" y="540" width="120" height="35" as="geometry" />
        </mxCell>
        <mxCell id="i-8EgYSI2Mq5ClRvYBfd-38" value="理论" style="rounded=1;whiteSpace=wrap;html=1;" vertex="1" parent="1">
          <mxGeometry x="440" y="240" width="74" height="50" as="geometry" />
        </mxCell>
      </root>
    </mxGraphModel>
  </diagram>
</mxfile>
